<mxfile host="app.diagrams.net" modified="2023-08-21T07:53:16.794Z" agent="Mozilla/5.0 (Windows NT 10.0; Win64; x64) AppleWebKit/537.36 (KHTML, like Gecko) Chrome/115.0.0.0 Safari/537.36 Edg/115.0.1901.203" etag="20Yt0loCPICCnwqjQ8Bo" version="21.6.8" type="github">
  <diagram name="第 1 页" id="uzUY4C0Cc3E5nTejKV3f">
    <mxGraphModel dx="830" dy="458" grid="1" gridSize="10" guides="1" tooltips="1" connect="1" arrows="1" fold="1" page="1" pageScale="1" pageWidth="827" pageHeight="1169" math="0" shadow="0">
      <root>
        <mxCell id="0" />
        <mxCell id="1" parent="0" />
        <mxCell id="KNoz7jlQIQE5EqGs1gwY-1" value="" style="ellipse;whiteSpace=wrap;html=1;aspect=fixed;fillColor=#dae8fc;strokeColor=#6c8ebf;" vertex="1" parent="1">
          <mxGeometry x="200" y="140" width="140" height="140" as="geometry" />
        </mxCell>
        <mxCell id="KNoz7jlQIQE5EqGs1gwY-3" value="" style="ellipse;whiteSpace=wrap;html=1;aspect=fixed;fillColor=#f8cecc;strokeColor=#b85450;" vertex="1" parent="1">
          <mxGeometry x="215" y="155" width="110" height="110" as="geometry" />
        </mxCell>
        <mxCell id="KNoz7jlQIQE5EqGs1gwY-5" value="" style="ellipse;whiteSpace=wrap;html=1;aspect=fixed;fillColor=#fff2cc;strokeColor=#d6b656;" vertex="1" parent="1">
          <mxGeometry x="230" y="170" width="80" height="80" as="geometry" />
        </mxCell>
        <mxCell id="KNoz7jlQIQE5EqGs1gwY-8" value="" style="endArrow=none;html=1;rounded=0;exitX=0;exitY=0.5;exitDx=0;exitDy=0;" edge="1" parent="1" source="KNoz7jlQIQE5EqGs1gwY-3">
          <mxGeometry width="50" height="50" relative="1" as="geometry">
            <mxPoint x="220" y="200" as="sourcePoint" />
            <mxPoint x="230" y="210" as="targetPoint" />
          </mxGeometry>
        </mxCell>
        <mxCell id="KNoz7jlQIQE5EqGs1gwY-11" value="" style="endArrow=none;html=1;rounded=0;exitX=0.064;exitY=0.733;exitDx=0;exitDy=0;exitPerimeter=0;entryX=0.067;entryY=0.729;entryDx=0;entryDy=0;entryPerimeter=0;" edge="1" parent="1" source="KNoz7jlQIQE5EqGs1gwY-3" target="KNoz7jlQIQE5EqGs1gwY-5">
          <mxGeometry width="50" height="50" relative="1" as="geometry">
            <mxPoint x="225" y="220" as="sourcePoint" />
            <mxPoint x="230" y="230" as="targetPoint" />
          </mxGeometry>
        </mxCell>
        <mxCell id="KNoz7jlQIQE5EqGs1gwY-12" value="" style="endArrow=classic;html=1;rounded=0;" edge="1" parent="1">
          <mxGeometry width="50" height="50" relative="1" as="geometry">
            <mxPoint x="230" y="321.97" as="sourcePoint" />
            <mxPoint x="245.4258030487399" y="265.0038833504193" as="targetPoint" />
          </mxGeometry>
        </mxCell>
        <mxCell id="KNoz7jlQIQE5EqGs1gwY-13" value="磁道" style="text;strokeColor=none;align=center;fillColor=none;html=1;verticalAlign=middle;whiteSpace=wrap;rounded=0;" vertex="1" parent="1">
          <mxGeometry x="230" y="330" width="60" height="30" as="geometry" />
        </mxCell>
        <mxCell id="KNoz7jlQIQE5EqGs1gwY-14" value="" style="endArrow=classic;html=1;rounded=0;" edge="1" parent="1">
          <mxGeometry width="50" height="50" relative="1" as="geometry">
            <mxPoint x="170" y="270" as="sourcePoint" />
            <mxPoint x="220" y="220" as="targetPoint" />
          </mxGeometry>
        </mxCell>
        <mxCell id="KNoz7jlQIQE5EqGs1gwY-15" value="扇区" style="text;strokeColor=none;align=center;fillColor=none;html=1;verticalAlign=middle;whiteSpace=wrap;rounded=0;" vertex="1" parent="1">
          <mxGeometry x="140" y="265" width="60" height="30" as="geometry" />
        </mxCell>
        <mxCell id="KNoz7jlQIQE5EqGs1gwY-16" value="" style="shape=flexArrow;endArrow=classic;html=1;rounded=0;exitX=1.038;exitY=0.445;exitDx=0;exitDy=0;exitPerimeter=0;" edge="1" parent="1" source="KNoz7jlQIQE5EqGs1gwY-1">
          <mxGeometry width="50" height="50" relative="1" as="geometry">
            <mxPoint x="360" y="220" as="sourcePoint" />
            <mxPoint x="420" y="202" as="targetPoint" />
          </mxGeometry>
        </mxCell>
        <mxCell id="KNoz7jlQIQE5EqGs1gwY-17" value="" style="shape=curlyBracket;whiteSpace=wrap;html=1;rounded=1;labelPosition=left;verticalLabelPosition=middle;align=right;verticalAlign=middle;" vertex="1" parent="1">
          <mxGeometry x="420" y="145" width="30" height="120" as="geometry" />
        </mxCell>
        <mxCell id="KNoz7jlQIQE5EqGs1gwY-19" value="" style="shape=waypoint;sketch=0;fillStyle=solid;size=6;pointerEvents=1;points=[];fillColor=none;resizable=0;rotatable=0;perimeter=centerPerimeter;snapToPoint=1;" vertex="1" parent="1">
          <mxGeometry x="460" y="135" width="20" height="20" as="geometry" />
        </mxCell>
        <mxCell id="KNoz7jlQIQE5EqGs1gwY-21" value="" style="shape=waypoint;sketch=0;fillStyle=solid;size=6;pointerEvents=1;points=[];fillColor=none;resizable=0;rotatable=0;perimeter=centerPerimeter;snapToPoint=1;" vertex="1" parent="1">
          <mxGeometry x="460" y="190" width="20" height="20" as="geometry" />
        </mxCell>
        <mxCell id="KNoz7jlQIQE5EqGs1gwY-22" value="" style="shape=waypoint;sketch=0;fillStyle=solid;size=6;pointerEvents=1;points=[];fillColor=none;resizable=0;rotatable=0;perimeter=centerPerimeter;snapToPoint=1;" vertex="1" parent="1">
          <mxGeometry x="460" y="245" width="20" height="20" as="geometry" />
        </mxCell>
        <mxCell id="KNoz7jlQIQE5EqGs1gwY-23" value="磁盘访问单位是扇区" style="text;html=1;align=center;verticalAlign=middle;resizable=0;points=[];autosize=1;strokeColor=none;fillColor=none;" vertex="1" parent="1">
          <mxGeometry x="480" y="130" width="130" height="30" as="geometry" />
        </mxCell>
        <mxCell id="KNoz7jlQIQE5EqGs1gwY-24" value="扇区大小：512字节" style="text;html=1;align=center;verticalAlign=middle;resizable=0;points=[];autosize=1;strokeColor=none;fillColor=none;" vertex="1" parent="1">
          <mxGeometry x="480" y="185" width="130" height="30" as="geometry" />
        </mxCell>
        <mxCell id="KNoz7jlQIQE5EqGs1gwY-25" value="扇区大小是传输时间和碎片浪费的折衷" style="text;html=1;align=center;verticalAlign=middle;resizable=0;points=[];autosize=1;strokeColor=none;fillColor=none;" vertex="1" parent="1">
          <mxGeometry x="480" y="240" width="230" height="30" as="geometry" />
        </mxCell>
      </root>
    </mxGraphModel>
  </diagram>
</mxfile>
